<svg width="257" height="232" viewBox="0 0 257 232" fill="none" xmlns="http://www.w3.org/2000/svg">
<g clip-path="url(#clip0_64_4457)">
<g clip-path="url(#clip1_64_4457)">
<g clip-path="url(#clip2_64_4457)">
<path d="M125.145 -41.7864C147.521 -64.7766 171.03 -72.6495 191.059 -74.4367C219.796 -76.9968 245.962 -67.8551 253.552 -36.3704C254.986 -30.4078 255.681 -23.2737 253.097 -14.7729C249.063 -1.50975 238.534 10.6875 228.918 19.7726C204.964 42.4131 180.374 56.982 156.474 69.6962C134.214 81.5406 112.161 92.0865 90.3164 101.334C73.2701 108.566 56.0435 115.017 41.525 114.105C39.4491 113.971 37.2639 113.495 36.9778 110.807C36.8643 109.016 37.3796 106.779 38.417 104.557C42.5562 95.2518 50.8338 89.9113 57.3331 87.2642C90.0456 74.0543 115.652 84.9299 134.182 104.196C140.129 110.39 145.695 118.299 144.404 131.857C142.685 150.065 128.509 173.05 113.942 186.657C99.3744 200.265 84.6055 206.423 70.6477 211.282C35.4424 223.491 1.82707 229.676 -29.4736 229.701" stroke="#E1DAF1" stroke-width="3" stroke-miterlimit="10"/>
</g>
</g>
</g>
<defs>
<clipPath id="clip0_64_4457">
<rect width="257" height="231" fill="white" transform="translate(0 0.5)"/>
</clipPath>
<clipPath id="clip1_64_4457">
<rect width="257" height="231" fill="white" transform="translate(0 0.5)"/>
</clipPath>
<clipPath id="clip2_64_4457">
<rect width="257" height="231" fill="white" transform="translate(0 0.5)"/>
</clipPath>
</defs>
</svg>
