<svg version="1.1" id="Layer_1" xmlns="http://www.w3.org/2000/svg" xmlns:xlink="http://www.w3.org/1999/xlink" x="0px" y="0px"
	 width="100%" viewBox="0 0 62 69" enable-background="new 0 0 62 69" xml:space="preserve">
<path fill="#000000" opacity="0.000000" stroke="none" 
	d="
M56.161072,70.000000 
	C37.478813,70.000000 19.314661,70.000000 1.075255,70.000000 
	C1.075255,47.053555 1.075255,24.106813 1.075255,1.080032 
	C21.610203,1.080032 42.220772,1.080032 62.915676,1.080032 
	C62.915676,23.940325 62.915676,46.881062 62.915676,70.000000 
	C60.894398,70.000000 58.786789,70.000000 56.161072,70.000000 
M16.111271,19.737217 
	C21.132236,18.493687 18.625092,15.740573 17.977030,13.360254 
	C17.341732,13.269106 16.706434,13.177958 16.071135,13.086809 
	C15.926290,15.155189 15.781445,17.223568 16.111271,19.737217 
M11.958599,39.392441 
	C12.227389,40.858128 12.496179,42.323818 12.764970,43.789505 
	C13.497753,43.322048 14.763187,42.946388 14.862565,42.369762 
	C15.150530,40.698891 14.970100,38.947296 14.973491,37.227379 
	C14.017283,37.727066 13.061075,38.226753 11.958599,39.392441 
M51.853771,39.136723 
	C51.506577,40.464787 51.159382,41.792850 50.812187,43.120914 
	C52.106571,42.706776 53.633900,42.585606 54.628670,41.794643 
	C55.589577,41.030613 56.001511,39.576138 56.654594,38.424957 
	C55.239635,38.555172 53.824680,38.685387 51.853771,39.136723 
M34.857128,53.441433 
	C35.269062,52.484406 35.681000,51.527378 36.092937,50.570351 
	C35.205635,50.366386 34.033657,49.704632 33.485252,50.045658 
	C31.937914,51.007851 30.646591,52.381744 29.254374,53.593391 
	C30.941870,53.657135 32.629364,53.720879 34.857128,53.441433 
z"/>
<path fill="#151439" opacity="1.000000" stroke="none" 
	d="
M15.873936,19.514582 
	C15.781445,17.223568 15.926290,15.155189 16.071135,13.086809 
	C16.706434,13.177958 17.341732,13.269106 17.977030,13.360254 
	C18.625092,15.740573 21.132236,18.493687 15.873936,19.514582 
z"/>
<path fill="#151439" opacity="1.000000" stroke="none" 
	d="
M12.031733,39.059441 
	C13.061075,38.226753 14.017283,37.727066 14.973491,37.227379 
	C14.970100,38.947296 15.150530,40.698891 14.862565,42.369762 
	C14.763187,42.946388 13.497753,43.322048 12.764969,43.789505 
	C12.496179,42.323818 12.227389,40.858128 12.031733,39.059441 
z"/>
<path fill="#151439" opacity="1.000000" stroke="none" 
	d="
M52.131744,38.976158 
	C53.824680,38.685387 55.239635,38.555172 56.654594,38.424957 
	C56.001511,39.576138 55.589577,41.030613 54.628670,41.794643 
	C53.633900,42.585606 52.106571,42.706776 50.812187,43.120914 
	C51.159382,41.792850 51.506577,40.464787 52.131744,38.976158 
z"/>
<path fill="#151439" opacity="1.000000" stroke="none" 
	d="
M34.586994,53.613029 
	C32.629364,53.720879 30.941870,53.657135 29.254374,53.593391 
	C30.646591,52.381744 31.937914,51.007851 33.485252,50.045658 
	C34.033657,49.704632 35.205635,50.366386 36.092937,50.570351 
	C35.681000,51.527378 35.269062,52.484406 34.586994,53.613029 
z"/>
</svg>