<svg version="1.1" id="Layer_1" xmlns="http://www.w3.org/2000/svg" xmlns:xlink="http://www.w3.org/1999/xlink" x="0px" y="0px"
	 width="100%" viewBox="0 0 214 57" enable-background="new 0 0 214 57" xml:space="preserve">
<path fill="#FFC224" opacity="1.000000" stroke="none" 
	d="
M1.000000,22.000000 
	C1.000000,18.307091 1.000000,14.614182 1.288770,10.800543 
	C3.130921,9.796280 4.610263,8.334662 6.249907,8.124666 
	C15.665184,6.918810 25.102699,5.814159 34.562996,5.051169 
	C45.564636,4.163867 56.600395,3.704101 67.611176,2.916552 
	C68.448860,2.856637 69.205620,1.665377 70.000000,1.000000 
	C104.687561,1.000000 139.375122,1.000000 174.190033,1.350951 
	C175.328323,2.133182 176.313889,2.861649 177.354065,2.950486 
	C189.898026,4.021806 202.450073,4.998581 215.000000,6.000000 
	C215.000000,11.354930 215.000000,16.709860 214.663940,22.191341 
	C213.910568,22.821205 213.178482,23.292398 213.123352,23.832672 
	C212.361115,31.302393 211.352325,38.771610 211.131897,46.262375 
	C211.006943,50.508244 208.903336,52.508938 205.441376,52.888042 
	C196.665985,53.848999 187.843628,54.420795 179.029022,54.971481 
	C171.480835,55.443054 163.913666,55.611252 156.365814,56.086773 
	C155.540298,56.138786 154.786865,57.334667 154.000000,58.000000 
	C114.312439,58.000000 74.624878,58.000000 34.810478,57.649429 
	C33.174728,56.865910 31.681547,56.141483 30.153709,56.058994 
	C26.676811,55.871273 23.176508,56.134281 19.697199,55.970371 
	C12.015963,55.608521 8.845004,53.800400 8.020025,49.538918 
	C6.330340,40.810741 4.684705,32.073696 2.901974,23.364655 
	C2.787107,22.803505 1.657543,22.450064 1.000000,22.000000 
z"/>
<path fill="#000000" opacity="0.000000" stroke="none" 
	d="
M154.468658,58.000000 
	C154.786865,57.334667 155.540298,56.138786 156.365814,56.086773 
	C163.913666,55.611252 171.480835,55.443054 179.029022,54.971481 
	C187.843628,54.420795 196.665985,53.848999 205.441376,52.888042 
	C208.903336,52.508938 211.006943,50.508244 211.131897,46.262375 
	C211.352325,38.771610 212.361115,31.302393 213.123352,23.832672 
	C213.178482,23.292398 213.910568,22.821205 214.663940,22.658947 
	C215.000000,34.613243 215.000000,46.226482 215.000000,58.000000 
	C194.979355,58.000000 174.958344,58.000000 154.468658,58.000000 
z"/>
<path fill="#000000" opacity="0.000000" stroke="none" 
	d="
M69.531342,1.000000 
	C69.205620,1.665377 68.448860,2.856637 67.611176,2.916552 
	C56.600395,3.704101 45.564636,4.163867 34.562996,5.051169 
	C25.102699,5.814159 15.665184,6.918810 6.249907,8.124666 
	C4.610263,8.334662 3.130921,9.796280 1.288770,10.339907 
	C1.000000,7.016928 1.000000,4.033856 1.000000,1.000000 
	C23.687538,1.000000 46.375111,1.000000 69.531342,1.000000 
z"/>
<path fill="#000000" opacity="0.000000" stroke="none" 
	d="
M1.000000,22.468657 
	C1.657543,22.450064 2.787107,22.803505 2.901974,23.364655 
	C4.684705,32.073696 6.330340,40.810741 8.020025,49.538918 
	C8.845004,53.800400 12.015963,55.608521 19.697199,55.970371 
	C23.176508,56.134281 26.676811,55.871273 30.153709,56.058994 
	C31.681547,56.141483 33.174728,56.865910 34.341820,57.649429 
	C23.070225,58.000000 12.140450,58.000000 1.000000,58.000000 
	C1.000000,46.313282 1.000000,34.625298 1.000000,22.468657 
z"/>
<path fill="#000000" opacity="0.000000" stroke="none" 
	d="
M215.000000,5.500038 
	C202.450073,4.998581 189.898026,4.021806 177.354065,2.950486 
	C176.313889,2.861649 175.328323,2.133182 174.658691,1.350951 
	C188.333344,1.000000 201.666702,1.000000 215.000000,1.000000 
	C215.000000,2.363368 215.000000,3.681721 215.000000,5.500038 
z"/>
</svg>